<svg width="70" height="25" viewBox="0 0 70 25" fill="none" xmlns="http://www.w3.org/2000/svg">
<path d="M6.282 19.216C5.298 19.216 4.392 18.988 3.564 18.532C2.736 18.076 2.07 17.404 1.566 16.516C1.074 15.616 0.828 14.512 0.828 13.204C0.828 11.908 1.08 10.804 1.584 9.892C2.1 8.968 2.778 8.266 3.618 7.786C4.47 7.294 5.388 7.048 6.372 7.048C7.128 7.048 7.806 7.204 8.406 7.516C9.006 7.816 9.504 8.17 9.9 8.578L8.496 10.27C8.196 9.994 7.878 9.772 7.542 9.604C7.218 9.424 6.846 9.334 6.426 9.334C5.898 9.334 5.412 9.484 4.968 9.784C4.536 10.084 4.188 10.516 3.924 11.08C3.672 11.644 3.546 12.322 3.546 13.114C3.546 14.314 3.804 15.25 4.32 15.922C4.836 16.594 5.526 16.93 6.39 16.93C6.87 16.93 7.296 16.822 7.668 16.606C8.052 16.39 8.388 16.132 8.676 15.832L10.08 17.488C9.096 18.64 7.83 19.216 6.282 19.216ZM13.8966 19.216C13.0806 19.216 12.4326 18.958 11.9526 18.442C11.4726 17.914 11.2326 17.272 11.2326 16.516C11.2326 15.58 11.6286 14.848 12.4206 14.32C13.2126 13.792 14.4906 13.438 16.2546 13.258C16.2306 12.862 16.1106 12.55 15.8946 12.322C15.6906 12.082 15.3426 11.962 14.8506 11.962C14.4786 11.962 14.1006 12.034 13.7166 12.178C13.3326 12.322 12.9246 12.52 12.4926 12.772L11.5386 11.026C12.1026 10.678 12.7026 10.396 13.3386 10.18C13.9866 9.964 14.6586 9.856 15.3546 9.856C16.4946 9.856 17.3706 10.186 17.9826 10.846C18.5946 11.506 18.9006 12.52 18.9006 13.888V19H16.7406L16.5606 18.082H16.4886C16.1166 18.418 15.7146 18.694 15.2826 18.91C14.8626 19.114 14.4006 19.216 13.8966 19.216ZM14.7966 17.164C15.0966 17.164 15.3546 17.098 15.5706 16.966C15.7986 16.822 16.0266 16.636 16.2546 16.408V14.842C15.3186 14.962 14.6706 15.154 14.3106 15.418C13.9506 15.67 13.7706 15.97 13.7706 16.318C13.7706 16.606 13.8606 16.822 14.0406 16.966C14.2326 17.098 14.4846 17.164 14.7966 17.164ZM21.1388 19V10.072H23.2988L23.4788 11.206H23.5508C23.9348 10.846 24.3548 10.534 24.8108 10.27C25.2788 9.994 25.8128 9.856 26.4128 9.856C27.3848 9.856 28.0868 10.18 28.5188 10.828C28.9628 11.464 29.1848 12.34 29.1848 13.456V19H26.5388V13.798C26.5388 13.15 26.4488 12.706 26.2688 12.466C26.1008 12.226 25.8248 12.106 25.4408 12.106C25.1048 12.106 24.8168 12.184 24.5768 12.34C24.3368 12.484 24.0728 12.694 23.7848 12.97V19H21.1388ZM35.3275 19.216C34.4995 19.216 33.7495 19.036 33.0775 18.676C32.4175 18.304 31.8895 17.77 31.4935 17.074C31.1095 16.366 30.9175 15.52 30.9175 14.536C30.9175 13.54 31.1335 12.694 31.5655 11.998C31.9975 11.302 32.5675 10.774 33.2755 10.414C33.9835 10.042 34.7455 9.856 35.5615 9.856C36.1135 9.856 36.5995 9.946 37.0195 10.126C37.4515 10.306 37.8355 10.534 38.1715 10.81L36.9295 12.52C36.5095 12.172 36.1075 11.998 35.7235 11.998C35.0875 11.998 34.5775 12.226 34.1935 12.682C33.8215 13.138 33.6355 13.756 33.6355 14.536C33.6355 15.304 33.8215 15.922 34.1935 16.39C34.5775 16.846 35.0575 17.074 35.6335 17.074C35.9215 17.074 36.2035 17.014 36.4795 16.894C36.7555 16.762 37.0075 16.606 37.2355 16.426L38.2795 18.154C37.8355 18.538 37.3555 18.814 36.8395 18.982C36.3235 19.138 35.8195 19.216 35.3275 19.216ZM43.3281 19.216C42.4761 19.216 41.7081 19.03 41.0241 18.658C40.3401 18.286 39.8001 17.752 39.4041 17.056C39.0081 16.36 38.8101 15.52 38.8101 14.536C38.8101 13.564 39.0081 12.73 39.4041 12.034C39.8121 11.338 40.3401 10.804 40.9881 10.432C41.6361 10.048 42.3141 9.856 43.0221 9.856C43.8741 9.856 44.5761 10.048 45.1281 10.432C45.6921 10.804 46.1121 11.314 46.3881 11.962C46.6761 12.598 46.8201 13.324 46.8201 14.14C46.8201 14.368 46.8081 14.596 46.7841 14.824C46.7601 15.04 46.7361 15.202 46.7121 15.31H41.3661C41.4861 15.958 41.7561 16.438 42.1761 16.75C42.5961 17.05 43.1001 17.2 43.6881 17.2C44.3241 17.2 44.9661 17.002 45.6141 16.606L46.4961 18.208C46.0401 18.52 45.5301 18.766 44.9661 18.946C44.4021 19.126 43.8561 19.216 43.3281 19.216ZM41.3481 13.564H44.5701C44.5701 13.072 44.4501 12.67 44.2101 12.358C43.9821 12.034 43.6041 11.872 43.0761 11.872C42.6681 11.872 42.3021 12.016 41.9781 12.304C41.6541 12.58 41.4441 13 41.3481 13.564ZM51.0785 19.216C50.1665 19.216 49.5305 18.946 49.1705 18.406C48.8225 17.854 48.6485 17.128 48.6485 16.228V6.382H51.2945V16.336C51.2945 16.612 51.3425 16.804 51.4385 16.912C51.5465 17.02 51.6545 17.074 51.7625 17.074C51.8225 17.074 51.8705 17.074 51.9065 17.074C51.9545 17.062 52.0145 17.05 52.0865 17.038L52.4105 19C52.2665 19.06 52.0805 19.108 51.8525 19.144C51.6365 19.192 51.3785 19.216 51.0785 19.216ZM56.0489 19.216C55.2329 19.216 54.5849 18.958 54.1049 18.442C53.6249 17.914 53.3849 17.272 53.3849 16.516C53.3849 15.58 53.7809 14.848 54.5729 14.32C55.3649 13.792 56.6429 13.438 58.4069 13.258C58.3829 12.862 58.2629 12.55 58.0469 12.322C57.8429 12.082 57.4949 11.962 57.0029 11.962C56.6309 11.962 56.2529 12.034 55.8689 12.178C55.4849 12.322 55.0769 12.52 54.6449 12.772L53.6909 11.026C54.2549 10.678 54.8549 10.396 55.4909 10.18C56.1389 9.964 56.8109 9.856 57.5069 9.856C58.6469 9.856 59.5229 10.186 60.1349 10.846C60.7469 11.506 61.0529 12.52 61.0529 13.888V19H58.8929L58.7129 18.082H58.6409C58.2689 18.418 57.8669 18.694 57.4349 18.91C57.0149 19.114 56.5529 19.216 56.0489 19.216ZM56.9489 17.164C57.2489 17.164 57.5069 17.098 57.7229 16.966C57.9509 16.822 58.1789 16.636 58.4069 16.408V14.842C57.4709 14.962 56.8229 15.154 56.4629 15.418C56.1029 15.67 55.9229 15.97 55.9229 16.318C55.9229 16.606 56.0129 16.822 56.1929 16.966C56.3849 17.098 56.6369 17.164 56.9489 17.164ZM63.2911 19V10.072H65.4511L65.6311 11.638H65.7031C66.0271 11.038 66.4171 10.594 66.8731 10.306C67.3291 10.006 67.7851 9.856 68.2411 9.856C68.4931 9.856 68.7031 9.874 68.8711 9.91C69.0391 9.934 69.1831 9.976 69.3031 10.036L68.8711 12.322C68.7151 12.274 68.5591 12.238 68.4031 12.214C68.2591 12.19 68.0911 12.178 67.8991 12.178C67.5631 12.178 67.2091 12.304 66.8371 12.556C66.4771 12.796 66.1771 13.216 65.9371 13.816V19H63.2911Z" fill="#212529"/>
<rect x="1" y="21" width="68" height="2" fill="#212529"/>
</svg>
