<svg width="15" height="17" viewBox="0 0 15 17" fill="none" xmlns="http://www.w3.org/2000/svg">
<path d="M2 17V2.3C2 2.13432 2.13431 2 2.3 2H8.2C8.36569 2 8.5 2.13431 8.5 2.3V8M8.5 9.5V17M10 17V9.5M10 8V0.8C10 0.634315 9.86569 0.5 9.7 0.5H0.8C0.634315 0.5 0.5 0.634315 0.5 0.8V17M3.6 4H6.9C6.95523 4 7 4.04477 7 4.1V5.4C7 5.45523 6.95523 5.5 6.9 5.5H3.6C3.54477 5.5 3.5 5.45523 3.5 5.4V4.1C3.5 4.04477 3.54477 4 3.6 4Z" stroke="black"/>
<path d="M6 9H13.5" stroke="black"/>
<path d="M11.5 7L13.5 9L11.5 11" stroke="black"/>
</svg>
