<svg height="512pt" viewBox="-31 0 511 512" width="512pt" xmlns="http://www.w3.org/2000/svg"><path d="m116.175781 241h-41.570312c-8.28125 0-15 6.714844-15 15s6.71875 15 15 15h41.570312c8.285157 0 15-6.714844 15-15s-6.714843-15-15-15zm0 0"/><path d="m298.082031 39.316406c-4.824219 0-9.597656.238282-14.304687.6875v-25.003906c0-8.285156-6.71875-15-15-15h-253.277344c-8.285156 0-15 6.714844-15 15v482c0 8.285156 6.714844 15 15 15h253.273438c8.285156 0 15-6.714844 15-15v-157.191406c4.710937.445312 9.484374.683594 14.308593.683594 83.03125 0 150.585938-67.554688 150.585938-150.589844 0-83.03125-67.554688-150.585938-150.585938-150.585938zm0 271.175782c-66.492187 0-120.585937-54.097657-120.585937-120.589844 0-66.492188 54.09375-120.585938 120.585937-120.585938 66.492188 0 120.585938 54.097656 120.585938 120.585938 0 66.492187-54.09375 120.589844-120.585938 120.589844zm-44.308593 171.507812h-223.273438v-452h223.273438v15.972656c-61.476563 18.964844-106.277344 76.3125-106.277344 143.933594 0 67.617188 44.800781 124.96875 106.277344 143.929688zm0 0"/><path d="m345.859375 171.507812v-15.863281c0-26.34375-21.433594-47.777343-47.777344-47.777343s-47.777343 21.433593-47.777343 47.777343v15.863281c-6.816407 1.410157-11.941407 7.449219-11.941407 14.683594v67.851563c0 8.285156 6.714844 15 15 15h89.4375c8.285157 0 15-6.714844 15-15v-67.851563c0-7.234375-5.125-13.273437-11.941406-14.683594zm-77.5 29.683594h59.441406v37.847656h-59.441406zm29.722656-63.324218c9.800781 0 17.777344 7.976562 17.777344 17.777343v15.546875h-35.554687v-15.546875c0-9.804687 7.976562-17.777343 17.777343-17.777343zm0 0"/></svg>