<svg width="49" height="25" viewBox="0 0 49 25" fill="none" xmlns="http://www.w3.org/2000/svg">
<path d="M1.386 19V7.264H8.73V9.496H4.032V11.854H8.028V14.068H4.032V16.768H8.91V19H1.386ZM14.0415 19.216C12.9375 19.216 12.0495 18.802 11.3775 17.974C10.7175 17.134 10.3875 15.988 10.3875 14.536C10.3875 13.564 10.5615 12.73 10.9095 12.034C11.2695 11.326 11.7315 10.786 12.2955 10.414C12.8715 10.042 13.4715 9.856 14.0955 9.856C14.5875 9.856 15.0015 9.94 15.3375 10.108C15.6735 10.276 15.9915 10.504 16.2915 10.792L16.1835 9.424V6.382H18.8295V19H16.6695L16.4895 18.118H16.4175C16.1055 18.43 15.7395 18.694 15.3195 18.91C14.8995 19.114 14.4735 19.216 14.0415 19.216ZM14.7255 17.056C15.0135 17.056 15.2715 16.996 15.4995 16.876C15.7395 16.756 15.9675 16.546 16.1835 16.246V12.592C15.9555 12.376 15.7095 12.226 15.4455 12.142C15.1935 12.058 14.9475 12.016 14.7075 12.016C14.2875 12.016 13.9155 12.22 13.5915 12.628C13.2675 13.024 13.1055 13.648 13.1055 14.5C13.1055 15.376 13.2435 16.024 13.5195 16.444C13.8075 16.852 14.2095 17.056 14.7255 17.056ZM21.1739 19V10.072H23.8199V19H21.1739ZM22.4879 8.758C22.0439 8.758 21.6839 8.632 21.4079 8.38C21.1319 8.128 20.9939 7.792 20.9939 7.372C20.9939 6.952 21.1319 6.616 21.4079 6.364C21.6839 6.112 22.0439 5.986 22.4879 5.986C22.9319 5.986 23.2919 6.112 23.5679 6.364C23.8439 6.616 23.9819 6.952 23.9819 7.372C23.9819 7.792 23.8439 8.128 23.5679 8.38C23.2919 8.632 22.9319 8.758 22.4879 8.758ZM29.5865 19.216C28.4825 19.216 27.6905 18.898 27.2105 18.262C26.7425 17.626 26.5085 16.792 26.5085 15.76V12.142H25.2845V10.18L26.6525 10.072L26.9585 7.696H29.1545V10.072H31.2965V12.142H29.1545V15.724C29.1545 16.228 29.2565 16.594 29.4605 16.822C29.6765 17.038 29.9585 17.146 30.3065 17.146C30.4505 17.146 30.5945 17.128 30.7385 17.092C30.8945 17.056 31.0325 17.014 31.1525 16.966L31.5665 18.892C31.3385 18.964 31.0565 19.036 30.7205 19.108C30.3965 19.18 30.0185 19.216 29.5865 19.216ZM34.9376 19.216C34.1216 19.216 33.4736 18.958 32.9936 18.442C32.5136 17.914 32.2736 17.272 32.2736 16.516C32.2736 15.58 32.6696 14.848 33.4616 14.32C34.2536 13.792 35.5316 13.438 37.2956 13.258C37.2716 12.862 37.1516 12.55 36.9356 12.322C36.7316 12.082 36.3836 11.962 35.8916 11.962C35.5196 11.962 35.1416 12.034 34.7576 12.178C34.3736 12.322 33.9656 12.52 33.5336 12.772L32.5796 11.026C33.1436 10.678 33.7436 10.396 34.3796 10.18C35.0276 9.964 35.6996 9.856 36.3956 9.856C37.5356 9.856 38.4116 10.186 39.0236 10.846C39.6356 11.506 39.9416 12.52 39.9416 13.888V19H37.7816L37.6016 18.082H37.5296C37.1576 18.418 36.7556 18.694 36.3236 18.91C35.9036 19.114 35.4416 19.216 34.9376 19.216ZM35.8376 17.164C36.1376 17.164 36.3956 17.098 36.6116 16.966C36.8396 16.822 37.0676 16.636 37.2956 16.408V14.842C36.3596 14.962 35.7116 15.154 35.3516 15.418C34.9916 15.67 34.8116 15.97 34.8116 16.318C34.8116 16.606 34.9016 16.822 35.0816 16.966C35.2736 17.098 35.5256 17.164 35.8376 17.164ZM42.1798 19V10.072H44.3398L44.5198 11.638H44.5918C44.9158 11.038 45.3058 10.594 45.7618 10.306C46.2178 10.006 46.6738 9.856 47.1298 9.856C47.3818 9.856 47.5918 9.874 47.7598 9.91C47.9278 9.934 48.0718 9.976 48.1918 10.036L47.7598 12.322C47.6038 12.274 47.4478 12.238 47.2918 12.214C47.1478 12.19 46.9798 12.178 46.7878 12.178C46.4518 12.178 46.0978 12.304 45.7258 12.556C45.3658 12.796 45.0658 13.216 44.8258 13.816V19H42.1798Z" fill="#212529"/>
</svg>
