<?xml version="1.0" encoding="iso-8859-1"?>
<!-- Generator: Adobe Illustrator 21.0.0, SVG Export Plug-In . SVG Version: 6.00 Build 0)  -->
<svg xmlns="http://www.w3.org/2000/svg" xmlns:xlink="http://www.w3.org/1999/xlink" version="1.1" id="Capa_1" x="0px" y="0px" viewBox="0 0 510 510" style="enable-background:new 0 0 510 510;" xml:space="preserve" width="512" height="512">
<g id="XMLID_607_">
	<g id="XMLID_85_">
		<path id="XMLID_1131_" d="M495,486.896H15c-8.284,0-15-6.716-15-15V38.104c0-8.284,6.716-15,15-15h480c8.284,0,15,6.716,15,15    v433.793C510,480.181,503.284,486.896,495,486.896z M30,456.896h450V53.104H30V456.896z"/>
	</g>
	<g id="XMLID_349_">
		<path id="XMLID_1124_" d="M166.35,304.13c-66.168,0-120-53.832-120-120s53.832-120,120-120s120,53.832,120,120    S232.519,304.13,166.35,304.13z M166.35,94.13c-49.626,0-90,40.374-90,90s40.374,90,90,90s90-40.374,90-90    S215.976,94.13,166.35,94.13z"/>
	</g>
	<g id="XMLID_401_">
		<path id="XMLID_1121_" d="M166.35,261.778c-42.816,0-77.649-34.833-77.649-77.648c0-42.816,34.833-77.649,77.649-77.649    S244,141.313,244,184.13C244,226.945,209.166,261.778,166.35,261.778z M166.35,136.48c-26.274,0-47.649,21.375-47.649,47.649    c0,26.273,21.375,47.648,47.649,47.648S214,210.403,214,184.13C214,157.855,192.624,136.48,166.35,136.48z"/>
	</g>
	<g id="XMLID_405_">
		<path id="XMLID_1118_" d="M385.207,219.428c-42.816,0-77.649-34.833-77.649-77.649c0-42.815,34.833-77.648,77.649-77.648    s77.649,34.833,77.649,77.648C462.856,184.595,428.023,219.428,385.207,219.428z M385.207,94.13    c-26.274,0-47.649,21.375-47.649,47.648c0,26.274,21.375,47.649,47.649,47.649s47.649-21.375,47.649-47.649    C432.856,115.505,411.481,94.13,385.207,94.13z"/>
	</g>
	<g id="XMLID_406_">
		<path id="XMLID_133_" d="M364.856,449.623c-54.038,0-98-43.963-98-98s43.962-98,98-98s98,43.963,98,98    S418.894,449.623,364.856,449.623z M364.856,283.623c-37.495,0-68,30.505-68,68s30.505,68,68,68s68-30.505,68-68    S402.351,283.623,364.856,283.623z"/>
	</g>
	<g id="XMLID_404_">
		<path id="XMLID_119_" d="M364.856,409.099c-31.692,0-57.476-25.783-57.476-57.476s25.783-57.476,57.476-57.476    s57.476,25.783,57.476,57.476S396.548,409.099,364.856,409.099z M364.856,324.147c-15.15,0-27.476,12.325-27.476,27.476    s12.326,27.476,27.476,27.476c15.15,0,27.476-12.325,27.476-27.476S380.006,324.147,364.856,324.147z"/>
	</g>
	<g id="XMLID_530_">
		<path id="XMLID_110_" d="M89.667,430.29H71.351c-8.284,0-15-6.716-15-15s6.716-15,15-15h18.316c8.284,0,15,6.716,15,15    S97.951,430.29,89.667,430.29z"/>
	</g>
	<g id="XMLID_531_">
		<path id="XMLID_109_" d="M132.667,430.29h-1.315c-8.284,0-15-6.716-15-15s6.716-15,15-15h1.315c8.284,0,15,6.716,15,15    S140.951,430.29,132.667,430.29z"/>
	</g>
	<g id="XMLID_532_">
		<path id="XMLID_108_" d="M179,430.29h-1.316c-8.284,0-15-6.716-15-15s6.716-15,15-15H179c8.284,0,15,6.716,15,15    S187.284,430.29,179,430.29z"/>
	</g>
	<g id="XMLID_533_">
		<path id="XMLID_106_" d="M225.333,430.29h-1.316c-8.284,0-15-6.716-15-15s6.716-15,15-15h1.316c8.284,0,15,6.716,15,15    S233.618,430.29,225.333,430.29z"/>
	</g>
</g>















</svg>
