<svg id="Capa_1" enable-background="new 0 0 512 512" height="512" viewBox="0 0 512 512" width="512" xmlns="http://www.w3.org/2000/svg"><g><path d="m367.609 326.392c3.527 2.172 8.146 1.073 10.319-2.455 2.171-3.527 1.073-8.147-2.455-10.319l-6.48-3.99c-5.141-3.165-9.163-7.649-11.731-12.96 3.895-7.149 5.943-15.158 5.943-23.398v-234.59c0-21.328-17.352-38.68-38.68-38.68h-195.48c-21.323 0-38.67 17.352-38.67 38.68v139.106c0 4.142 3.358 7.5 7.5 7.5s7.5-3.358 7.5-7.5v-139.106c0-13.057 10.618-23.68 23.67-23.68h195.48c13.057 0 23.68 10.623 23.68 23.68v223.552l-23.551-97.527c-2.203-9.123-8.442-16.424-17.118-20.031-8.691-3.613-18.289-2.885-26.333 2.001-15.64 9.5-24.625 26.731-23.449 44.97l5.935 91.998c.557 8.631-2.101 16.977-7.5 23.675h-127.144c-13.052 0-23.67-10.623-23.67-23.68v-75.854c0-4.142-3.358-7.5-7.5-7.5s-7.5 3.358-7.5 7.5v75.854c0 21.328 17.347 38.68 38.67 38.68h21.929c-2.663 4.557-4.088 9.757-4.088 15.18 0 16.27 12.942 29.565 29.071 30.152-2.671 4.566-4.101 9.775-4.101 15.208 0 16.642 13.539 30.18 30.18 30.18h16.507c2.117 12.575 6.391 24.917 12.899 36.454l.237.421c4.167 7.386 6.369 15.772 6.369 24.253v30.334c0 4.142 3.358 7.5 7.5 7.5s7.5-3.358 7.5-7.5v-30.332c0-11.058-2.872-21.993-8.304-31.623l-.237-.421c-20.327-36.034-15.598-81.107 11.769-112.159l10.174-11.545c8.722-9.896 13.057-22.59 12.208-35.743l-5.935-91.998c-.815-12.645 5.417-24.594 16.267-31.184 3.905-2.372 8.565-2.727 12.787-.971 4.206 1.749 7.229 5.285 8.296 9.702l30.339 125.637c2.887 11.955 10.245 22.09 20.717 28.539zm-150.556 71.648h-15.018c-8.371 0-15.18-6.81-15.18-15.18 0-4.058 1.578-7.871 4.437-10.73 2.876-2.87 6.692-4.45 10.743-4.45h18.167c-2.421 9.929-3.481 20.146-3.149 30.36zm7.933-45.36h-47.921c-8.37 0-15.18-6.81-15.18-15.18 0-4.059 1.579-7.87 4.453-10.737 2.866-2.865 6.675-4.443 10.727-4.443h66.033c-7.737 9.261-13.792 19.522-18.112 30.36zm180.86-84.442-13.232-18.334c-2.431-3.354-7.121-4.101-10.474-1.669-3.354 2.431-4.101 7.121-1.669 10.474l13.232 18.334c13.207 18.215 16.522 41.72 8.87 62.875-.893 2.468-41.837 114.068-41.728 116.583v48c0 4.142 3.358 7.5 7.5 7.5s7.5-3.358 7.5-7.5v-46.684l40.833-112.794c9.345-25.837 5.296-54.541-10.832-76.785zm-179.06-53.637c-13.014 0-23.602 10.588-23.602 23.602s10.588 23.602 23.602 23.602 23.602-10.588 23.602-23.602-10.588-23.602-23.602-23.602zm0 32.204c-4.743 0-8.602-3.859-8.602-8.602s3.859-8.602 8.602-8.602 8.602 3.859 8.602 8.602-3.859 8.602-8.602 8.602zm0-186.291c-15.979 0-28.772 14.13-27.131 29.949l9.268 93.641c.913 9.226 8.593 16.183 17.863 16.183s16.95-6.957 17.863-16.183l9.268-93.641c1.65-15.827-11.356-29.949-27.131-29.949zm12.204 28.472-9.268 93.641c-.15 1.517-1.413 2.66-2.937 2.66s-2.786-1.144-2.937-2.66l-9.268-93.641c-.749-7.116 5.061-13.472 12.204-13.472 7.114 0 12.959 6.364 12.206 13.472z"/></g></svg>