<svg width="42" height="41" viewBox="0 0 42 41" fill="none" xmlns="http://www.w3.org/2000/svg">
<path d="M2 8V5C2 3.34315 3.34315 2 5 2H9" stroke="#534E8C" stroke-width="3"/>
<path d="M33.4336 2H36C37.6569 2 39 3.34315 39 5V8.16667M2 33.807V36C2 37.6569 3.34315 39 5 39H8.87611" stroke="#534E8C" stroke-width="3"/>
<path d="M40 34V36C40 37.6569 38.6569 39 37 39H33" stroke="#534E8C" stroke-width="3"/>
<path fill-rule="evenodd" clip-rule="evenodd" d="M7.59408 22.8502C8.12901 23.5437 10.9814 27.2414 17.4965 27.2943V30.8126C17.4965 32.1469 17.8273 33.8071 19.1616 33.8071C20.4732 33.8071 20.8268 32.1316 20.8268 30.82V27.2943C24.9777 27.1022 33.3808 24.7007 33.7863 16.6318C34.1917 8.56282 28.5253 6.54558 25.2432 6.54558C24.3835 6.52733 22.887 6.65611 21.4128 7.21625C17.9043 8.54936 17.4965 12.953 17.4965 16.7062V24.5854C16.0967 24.5086 12.9208 24.0091 11.4149 22.6258C11.3433 22.6258 11.0533 22.6369 10.6524 22.6521C9.75609 22.6861 8.3058 22.7411 7.50537 22.7411C7.51721 22.7505 7.54646 22.7885 7.59408 22.8502ZM20.8992 24.5274C24.2296 24.2585 30.6442 22.0938 30.2387 15.1315C29.9974 13.1911 28.6894 9.18351 24.8088 9.36794C21.7286 9.36794 21.0265 13.1302 20.9921 16.2102L20.8992 24.5274Z" fill="url(#paint0_linear_1224_139)"/>
<rect x="7.42334" y="18.5146" width="2.63837" height="2.39625" fill="url(#paint1_linear_1224_139)"/>
<rect x="10.9412" y="14.521" width="2.63837" height="2.39625" fill="url(#paint2_linear_1224_139)"/>
<rect x="6.54395" y="10.5269" width="2.63837" height="2.39625" fill="url(#paint3_linear_1224_139)"/>
<rect x="11.8208" y="8.9292" width="0.879455" height="0.798751" fill="url(#paint4_linear_1224_139)"/>
<path d="M8.30298 20.1123L12.6563 16.5179L8.30298 12.1248L12.6563 9.72852L17.977 13.7223" stroke="#534E8C" stroke-width="0.2"/>
<defs>
<linearGradient id="paint0_linear_1224_139" x1="20.6561" y1="6.54395" x2="20.6561" y2="33.8071" gradientUnits="userSpaceOnUse">
<stop stop-color="#534E8C"/>
</linearGradient>
<linearGradient id="paint1_linear_1224_139" x1="8.74252" y1="18.5146" x2="8.74252" y2="20.9109" gradientUnits="userSpaceOnUse">
<stop stop-color="#534E8C"/>
</linearGradient>
<linearGradient id="paint2_linear_1224_139" x1="12.2603" y1="14.521" x2="12.2603" y2="16.9173" gradientUnits="userSpaceOnUse">
<stop stop-color="#534E8C"/>
</linearGradient>
<linearGradient id="paint3_linear_1224_139" x1="7.86313" y1="10.5269" x2="7.86313" y2="12.9231" gradientUnits="userSpaceOnUse">
<stop stop-color="#534E8C"/>
</linearGradient>
<linearGradient id="paint4_linear_1224_139" x1="12.2605" y1="8.9292" x2="12.2605" y2="9.72795" gradientUnits="userSpaceOnUse">
<stop stop-color="#534E8C"/>
</linearGradient>
</defs>
</svg>
