<svg width="172" height="41" viewBox="0 0 172 41" fill="none" xmlns="http://www.w3.org/2000/svg">
<path d="M2 8V5C2 3.34315 3.34315 2 5 2H9" stroke="#534E8C" stroke-width="3"/>
<path d="M33.4336 2H36C37.6569 2 39 3.34315 39 5V8.16667M2 33.807V36C2 37.6569 3.34315 39 5 39H8.87611" stroke="#534E8C" stroke-width="3"/>
<path d="M40 34V36C40 37.6569 38.6569 39 37 39H33" stroke="#534E8C" stroke-width="3"/>
<path fill-rule="evenodd" clip-rule="evenodd" d="M7.59408 22.8501C8.12901 23.5435 10.9814 27.2413 17.4965 27.2942V30.8125C17.4965 32.1468 17.8273 33.807 19.1616 33.807C20.4732 33.807 20.8268 32.1314 20.8268 30.8199V27.2942C24.9777 27.1021 33.3808 24.7006 33.7863 16.6317C34.1917 8.5627 28.5253 6.54546 25.2432 6.54546C24.3835 6.52721 22.887 6.65599 21.4128 7.21613C17.9043 8.54924 17.4965 12.9529 17.4965 16.7061V24.5853C16.0967 24.5085 12.9208 24.009 11.4149 22.6257C11.3433 22.6257 11.0533 22.6367 10.6524 22.6519C9.75609 22.686 8.3058 22.741 7.50537 22.741C7.51721 22.7504 7.54646 22.7883 7.59408 22.8501ZM20.8992 24.5273C24.2296 24.2584 30.6442 22.0937 30.2387 15.1314C29.9974 13.191 28.6894 9.18339 24.8088 9.36782C21.7286 9.36782 21.0265 13.1301 20.9921 16.2101L20.8992 24.5273Z" fill="url(#paint0_linear_1164_140)"/>
<rect x="7.42334" y="18.5146" width="2.63837" height="2.39625" fill="url(#paint1_linear_1164_140)"/>
<rect x="10.9412" y="14.5208" width="2.63837" height="2.39625" fill="url(#paint2_linear_1164_140)"/>
<rect x="6.54395" y="10.5269" width="2.63837" height="2.39625" fill="url(#paint3_linear_1164_140)"/>
<rect x="11.8208" y="8.92926" width="0.879455" height="0.798751" fill="url(#paint4_linear_1164_140)"/>
<path d="M8.30298 20.112L12.6563 16.5177L8.30298 12.1245L12.6563 9.72827L17.977 13.722" stroke="#534E8C" stroke-width="0.2"/>
<path d="M52.035 28H54.705V20.98H54.735C54.975 22.435 55.11 22.93 55.365 23.83L56.505 28H59.145L60.315 23.83C60.555 22.975 60.735 22.27 60.915 21.13H60.945V28H63.81V16.9H59.745L57.99 24.43H57.96L56.01 16.9H52.035V28ZM67.2428 28H69.9728L70.6928 25.93H74.1878L74.8628 28H77.8928L73.9628 16.855H71.1728L67.2428 28ZM71.3978 23.8L72.4628 20.725H72.4928L73.5128 23.8H71.3978ZM81.3348 28H84.0798V21.79H84.1098L88.3548 28H91.1298V16.9H88.3848V23.125H88.3548L84.2898 16.9H81.3348V28ZM99.89 28.165C103.13 28.165 104.54 26.485 104.54 23.545V16.9H101.6V23.53C101.6 25.06 101.12 25.75 99.92 25.75C98.72 25.75 98.225 25.06 98.225 23.53V16.9H95.225V23.545C95.225 26.485 96.65 28.165 99.89 28.165ZM107.45 28H110.18L110.9 25.93H114.395L115.07 28H118.1L114.17 16.855H111.38L107.45 28ZM111.605 23.8L112.67 20.725H112.7L113.72 23.8H111.605ZM121.542 28H129.207V25.585H124.542V16.9H121.542V28ZM132.713 28H135.683V24.46H136.868C139.043 24.46 141.668 23.965 141.668 20.68C141.668 17.395 139.238 16.9 136.868 16.9H132.713V28ZM135.683 22.18V19.33H136.973C138.368 19.33 138.743 19.915 138.743 20.755C138.743 21.595 138.368 22.18 136.973 22.18H135.683ZM145.319 28H148.319V23.515H152.009V28H155.009V16.9H152.009V21.025H148.319V16.9H145.319V28ZM159.422 28H162.422V16.9H159.422V28Z" fill="url(#paint5_linear_1164_140)"/>
<defs>
<linearGradient id="paint0_linear_1164_140" x1="20.6561" y1="6.54382" x2="20.6561" y2="33.807" gradientUnits="userSpaceOnUse">
<stop stop-color="#534E8C"/>
</linearGradient>
<linearGradient id="paint1_linear_1164_140" x1="8.74252" y1="18.5146" x2="8.74252" y2="20.9109" gradientUnits="userSpaceOnUse">
<stop stop-color="#534E8C"/>
</linearGradient>
<linearGradient id="paint2_linear_1164_140" x1="12.2603" y1="14.5208" x2="12.2603" y2="16.9171" gradientUnits="userSpaceOnUse">
<stop stop-color="#534E8C"/>
</linearGradient>
<linearGradient id="paint3_linear_1164_140" x1="7.86313" y1="10.5269" x2="7.86313" y2="12.9232" gradientUnits="userSpaceOnUse">
<stop stop-color="#534E8C"/>
</linearGradient>
<linearGradient id="paint4_linear_1164_140" x1="12.2605" y1="8.92926" x2="12.2605" y2="9.72801" gradientUnits="userSpaceOnUse">
<stop stop-color="#534E8C"/>
</linearGradient>
<linearGradient id="paint5_linear_1164_140" x1="111.5" y1="16" x2="111.5" y2="30" gradientUnits="userSpaceOnUse">
<stop stop-color="#534E8C"/>
</linearGradient>
</defs>
</svg>
